<svg width="748" height="748" viewBox="0 0 748 748" fill="none" xmlns="http://www.w3.org/2000/svg">
<circle cx="439.286" cy="331.463" r="172.699" transform="rotate(-42.2828 439.286 331.463)" stroke="#68D8D6" stroke-width="30"/>
<circle cx="373.639" cy="373.815" r="249.5" transform="rotate(-42.2828 373.639 373.815)" stroke="#68D8D6" stroke-width="30"/>
<path d="M450.308 212.324L472.138 330.158L450.308 449.324L425.138 330.158L450.308 212.324Z" fill="#ADFFFC"/>
<path d="M345.138 329.367L448.056 310.324L552.138 329.367L448.056 351.324L345.138 329.367Z" fill="#ADFFFC"/>
<circle cx="439.286" cy="331.463" r="172.699" transform="rotate(-42.2828 439.286 331.463)" stroke="#68D8D6" stroke-width="30"/>
<path d="M450.308 212.324L472.138 330.158L450.308 449.324L425.138 330.158L450.308 212.324Z" fill="#ADFFFC"/>
<path d="M345.138 329.367L448.056 310.324L552.138 329.367L448.056 351.324L345.138 329.367Z" fill="#ADFFFC"/>
</svg>
